<svg id="Layer_1" data-name="Layer 1" xmlns="http://www.w3.org/2000/svg" viewBox="0 0 35.1 35.1"><defs><style>.cls-1{fill:#25d366;}.cls-2{fill:#fff;fill-rule:evenodd;}</style></defs><circle class="cls-1" cx="17.55" cy="17.55" r="17.55"/><path class="cls-2" d="M276.88,390a8.6,8.6,0,0,1,5.85,2.37,8.53,8.53,0,0,1-5.65,14.68h-.24a8.56,8.56,0,0,1-3.7-.84l-4.46,1h0a.07.07,0,0,1-.07-.07l.75-4.51A8.54,8.54,0,0,1,276.84,390Zm0,1.48h-.21a7,7,0,0,0-5.87,10.61l.13.22-.56,3.06,3-.71.23.12a7,7,0,0,0,3.25.79H277a7,7,0,0,0-.19-14.09Zm-2.95,2.93.41,0c.15,0,.32,0,.47.38s.56,1.5.61,1.61a.42.42,0,0,1,0,.38,1.56,1.56,0,0,1-.23.34,4.27,4.27,0,0,1-.33.37c-.11.1-.23.22-.11.43a6.56,6.56,0,0,0,1.15,1.52,5.68,5.68,0,0,0,1.68,1.13.6.6,0,0,0,.23.06.34.34,0,0,0,.24-.11c.13-.14.53-.6.7-.82a.33.33,0,0,1,.26-.15.56.56,0,0,1,.23.06c.19.08,1.22.63,1.43.74s.36.17.41.26a1.74,1.74,0,0,1-.16,1,2.16,2.16,0,0,1-1.47,1l-.38,0a5.6,5.6,0,0,1-2.17-.64,8.72,8.72,0,0,1-3.56-3.34,4.2,4.2,0,0,1-.8-2.24,2.41,2.41,0,0,1,.8-1.76.79.79,0,0,1,.56-.25Zm0,0" transform="translate(-259.29 -381.47)"/></svg>